<?xml version="1.0" encoding="UTF-8" standalone="no"?>
<svg
   xmlns:dc="http://purl.org/dc/elements/1.1/"
   xmlns:cc="http://creativecommons.org/ns#"
   xmlns:rdf="http://www.w3.org/1999/02/22-rdf-syntax-ns#"
   xmlns:svg="http://www.w3.org/2000/svg"
   xmlns="http://www.w3.org/2000/svg"
   xmlns:sodipodi="http://sodipodi.sourceforge.net/DTD/sodipodi-0.dtd"
   xmlns:inkscape="http://www.inkscape.org/namespaces/inkscape"
   inkscape:version="1.0 (4035a4fb49, 2020-05-01)"
   sodipodi:docname="Grid.svg"
   id="svg4"
   version="1.1"
   width="16"
   viewBox="0 0 16 16"
   height="16">
  <metadata
     id="metadata10">
    <rdf:RDF>
      <cc:Work
         rdf:about="">
        <dc:format>image/svg+xml</dc:format>
        <dc:type
           rdf:resource="http://purl.org/dc/dcmitype/StillImage" />
      </cc:Work>
    </rdf:RDF>
  </metadata>
  <defs
     id="defs8" />
  <sodipodi:namedview
     inkscape:current-layer="svg4"
     inkscape:window-maximized="1"
     inkscape:window-y="-8"
     inkscape:window-x="1912"
     inkscape:cy="7.2161224"
     inkscape:cx="7.6195628"
     inkscape:zoom="45.254834"
     showgrid="true"
     id="namedview6"
     inkscape:window-height="1377"
     inkscape:window-width="2560"
     inkscape:pageshadow="2"
     inkscape:pageopacity="0"
     guidetolerance="10"
     gridtolerance="10"
     objecttolerance="10"
     borderopacity="1"
     bordercolor="#666666"
     pagecolor="#ffffff">
    <inkscape:grid
       id="grid835"
       type="xygrid" />
  </sodipodi:namedview>
  <g
     style="opacity:1;stroke:none;stroke-width:0;stroke-miterlimit:4;stroke-dasharray:none"
     clip-path="none"
     id="g888">
    <path
       d="M 1 1 L 1 3 L 1 13 L 1 15 L 3 15 L 5.0507812 15 L 5.71875 11.65625 L 8.375 9 L 7 9 L 7 7 L 9 7 L 9 8.375 L 10.1875 7.1875 L 10.5 6.875 L 12.0625 5.3125 C 12.222608 5.1523919 12.41843 5.0601484 12.623047 5 L 11 5 L 11 3 L 13 3 L 13 4.9277344 C 13.340258 4.9277344 13.680515 5.0555154 13.9375 5.3125 L 15 6.375 L 15 1 L 3 1 L 1 1 z M 3 3 L 5 3 L 5 5 L 3 5 L 3 3 z M 7 3 L 9 3 L 9 5 L 7 5 L 7 3 z M 13 5.8027344 C 12.888383 5.8027345 12.776765 5.8482347 12.6875 5.9375 L 11.75 6.875 L 11.875 7 L 13 7 L 13 8.125 L 13.625 8.75 L 14.5625 7.8125 C 14.741031 7.6339695 14.741031 7.3660305 14.5625 7.1875 L 13.3125 5.9375 C 13.223234 5.8482343 13.111617 5.8027343 13 5.8027344 z M 3 7 L 5 7 L 5 9 L 3 9 L 3 7 z M 15 8.625 L 13.625 10 L 12.625 11 L 13 11 L 13 13 L 11 13 L 11 12.625 L 8.84375 14.78125 L 7.75 15 L 15 15 L 15 13 L 15 8.625 z M 11.75 9.375 L 9 12.125 L 9 13 L 8.125 13 L 8 13.125 L 7.875 13 L 7 13 L 7 12.125 L 6.75 11.875 L 6.53125 12.09375 L 6.0625 14.4375 L 8.40625 13.96875 L 11 11.375 L 11 11 L 11.375 11 L 12.375 10 L 11.75 9.375 z M 3 11 L 5 11 L 5 13 L 3 13 L 3 11 z "
       style="color:#000000;font-style:normal;font-variant:normal;font-weight:normal;font-stretch:normal;font-size:medium;line-height:normal;font-family:sans-serif;font-variant-ligatures:normal;font-variant-position:normal;font-variant-caps:normal;font-variant-numeric:normal;font-variant-alternates:normal;font-variant-east-asian:normal;font-feature-settings:normal;font-variation-settings:normal;text-indent:0;text-align:start;text-decoration:none;text-decoration-line:none;text-decoration-style:solid;text-decoration-color:#000000;letter-spacing:normal;word-spacing:normal;text-transform:none;writing-mode:lr-tb;direction:ltr;text-orientation:mixed;dominant-baseline:auto;baseline-shift:baseline;text-anchor:start;white-space:normal;shape-padding:0;shape-margin:0;inline-size:0;clip-rule:nonzero;display:inline;overflow:visible;visibility:visible;isolation:auto;mix-blend-mode:normal;color-interpolation:sRGB;color-interpolation-filters:linearRGB;solid-color:#000000;solid-opacity:1;vector-effect:none;fill:#a5b7f3;fill-opacity:0.98824;fill-rule:nonzero;stroke:none;stroke-width:0;stroke-linecap:butt;stroke-linejoin:miter;stroke-miterlimit:4;stroke-dasharray:none;stroke-dashoffset:0;stroke-opacity:1;color-rendering:auto;image-rendering:auto;shape-rendering:auto;text-rendering:auto;enable-background:accumulate;stop-color:#000000;stop-opacity:1"
       id="path890" />
  </g>
  <path
     style="stroke-width:0.883883;fill:#495d9a;fill-opacity:0.98823529"
     d="M 13.625001,5.6250011 C 13.27875,5.2787508 12.72125,5.2787508 12.375,5.6250008 L 11.125,6.8750007 13.625001,9.3750006 14.875,8.1250007 c 0.34625,-0.34625 0.34625,-0.9037498 0,-1.2499998 z M 10.5,7.5000005 6.1250007,11.875 5.500001,15 8.6250006,14.375 13,10 Z m 10e-7,1.2500002 0.624998,0.6249999 L 8.0000006,12.5 7.3750008,11.875 Z"
     fill="#e0e0e0"
     id="path837" />
</svg>
